# xmcd
#
# Track frame offsets:
#	150
#	11597
#	38771
#	57753
#	70252
#	81643
#	92475
#	115064
#	137798
#	150370
#	163497
#	179064
#
# Disc length: 2488 seconds
#
# Revision: 0
# Processed by: cddbd v1.5.2PL0 Copyright (c) Steve Scherf et al.
# Submitted via: audiograbber 1.83.01
#
DISCID=9f09b60c
DTITLE=Stefan Diestelmann - Folk Blues and Boogie
DYEAR=1984
DGENRE=Blues
TTITLE0=Django
TTITLE1=Rückblick
TTITLE2=Reminiszenz an A. A.
TTITLE3=Guitar Boogie
TTITLE4=An 'nen Kumpel
TTITLE5=Thüringer Boogie
TTITLE6=Heimweg
TTITLE7=Biografie für viele
TTITLE8=Harps Boogie
TTITLE9=Blues vom "Blauen Club"
TTITLE10=Thank You, Red
TTITLE11=Schlussliedchen
EXTD=
EXTT0=
EXTT1=
EXTT2=
EXTT3=
EXTT4=
EXTT5=
EXTT6=
EXTT7=
EXTT8=
EXTT9=
EXTT10=
EXTT11=
PLAYORDER=
